<svg viewBox="0 0 320 96" xmlns="http://www.w3.org/2000/svg" role="img" aria-label="Cardio">
  <defs>
    <linearGradient id="ecgGrad" x1="0" y1="0" x2="1" y2="0">
      <stop offset="0" stop-color="#9B78D4"/>
      <stop offset="1" stop-color="#6F4DB3"/>
    </linearGradient>
  </defs>
  <path d="M12 48 H44 L54 14 L66 82 L76 48 H108 L118 14 L130 82 L140 48 H172 L182 14 L194 82 L204 48 H252"
        fill="none" stroke="url(#ecgGrad)" stroke-width="8"
        stroke-linecap="round" stroke-linejoin="round"/>
  <path transform="translate(242 14) scale(2.8)"
        d="M12 21.35l-1.45-1.32C5.4 15.36 2 12.28 2 8.5 2 5.42 4.42 3 7.5 3c1.74 0 3.41.81 4.5 2.09C13.09 3.81 14.76 3 16.5 3 19.58 3 22 5.42 22 8.5c0 3.78-3.4 6.86-8.55 11.54L12 21.35z"
        fill="#6F4DB3"/>
</svg>
