<!DOCTYPE svg PUBLIC "-//W3C//DTD SVG 1.1//EN" "http://www.w3.org/Graphics/SVG/1.1/DTD/svg11.dtd">
<!-- Uploaded to: SVG Repo, www.svgrepo.com, Transformed by: SVG Repo Mixer Tools -->
<svg fill="#E6E6EB" height="800px" width="800px" version="1.1" id="Capa_1" xmlns="http://www.w3.org/2000/svg" xmlns:xlink="http://www.w3.org/1999/xlink" viewBox="0 0 297.5 297.5" xml:space="preserve">
<g id="SVGRepo_bgCarrier" stroke-width="0"/>
<g id="SVGRepo_tracerCarrier" stroke-linecap="round" stroke-linejoin="round"/>
<g id="SVGRepo_iconCarrier"> <path d="M262.502,99.5c0,8.284-6.716,15-15,15h-49c-2.949,0-5.834-0.869-8.291-2.5l-31.525-20.911L134.377,123.5h30.938 c2.329,0,4.625,0.542,6.708,1.584l57.164,28.582c7.41,3.704,10.413,12.715,6.708,20.124c-3.705,7.408-12.715,10.416-20.124,6.708 L161.774,153.5h-31.526l17.146,17.32c3.789,3.827,5.235,9.393,3.789,14.58c-1.446,5.188-5.563,9.203-10.785,10.519L83.666,210.21 c-1.229,0.31-2.462,0.458-3.675,0.458c-6.711,0-12.821-4.536-14.535-11.34c-2.023-8.033,2.849-16.186,10.882-18.21l31.245-7.871 l-23.95-24.194c-1.242-1.255-2.22-2.694-2.937-4.239c-5.04-7.699-5.034-18.028,0.806-25.814l35.514-47.351l-17.514-5.838 L54.745,80.73c-7.86,2.617-16.354-1.627-18.974-9.487c-2.619-7.859,1.628-16.354,9.487-18.974l49.5-16.5 c3.078-1.025,6.408-1.025,9.486,0l49.5,16.5c7.288,2.756,49.279,32.23,49.279,32.23h44.478 C255.786,84.5,262.502,91.216,262.502,99.5z M180.252,49.5c13.669,0,24.75-11.081,24.75-24.75S193.921,0,180.252,0 s-24.75,11.081-24.75,24.75S166.583,49.5,180.252,49.5z M179.206,182.031c-3.643,1.091-6.037,4.587-6.037,8.39v80.788 c0,5.132-3.828,9.292-8.96,9.292h-30.955c-3.802,0-7.298,2.395-8.389,6.037c-1.647,5.497,2.522,10.963,7.886,10.963h41.25h-0.166 c9.113,0,16.334-7.387,16.334-16.5v-0.5v-90.583C190.169,184.552,184.703,180.384,179.206,182.031z"/> </g>
</svg>