<!DOCTYPE svg PUBLIC "-//W3C//DTD SVG 1.1//EN" "http://www.w3.org/Graphics/SVG/1.1/DTD/svg11.dtd">
<!-- Uploaded to: SVG Repo, www.svgrepo.com, Transformed by: SVG Repo Mixer Tools -->
<svg fill="#E6E6EB" height="800px" width="800px" version="1.1" id="Capa_1" xmlns="http://www.w3.org/2000/svg" xmlns:xlink="http://www.w3.org/1999/xlink" viewBox="0 0 296.5 296.5" xml:space="preserve">
<g id="SVGRepo_bgCarrier" stroke-width="0"/>
<g id="SVGRepo_tracerCarrier" stroke-linecap="round" stroke-linejoin="round"/>
<g id="SVGRepo_iconCarrier"> <g> <path d="M157.48,179.113l0.051,20.797c0.021,8.284-6.679,15.123-14.963,15.123c-0.013,0-0.025,0-0.038,0 c-8.268,0-14.979-6.777-14.999-15.048l-0.051-20.755c-0.048-19.719-9.944-37.933-26.473-48.688l-19.344-12.6 c-7.43-4.834-12.193-13.018-12.741-21.883c-0.545-8.809,2.98-17.097,9.673-22.737c6.031-5.084,14.4-6.112,18.333-6.301 c0.956-0.102,1.937-0.105,2.928-0.021c0.811-0.051,1.631-0.063,2.462-0.024l83.65,3.624c11.091,0.48,19.951,8.913,21.332,19.556 l1.087,1.244c9.786,11.206,23.933,17.633,38.811,17.633h6.302c8.284,0,15,6.716,15,15s-6.716,15-15,15h-6.302 c-21.714,0-42.437-8.658-57.677-23.916c-1.46,0.299-2.967,0.461-4.51,0.461c-0.329,0-0.658-0.007-0.99-0.021l-56.464-2.446 C146.42,129.678,157.417,153.545,157.48,179.113z M296.5,212.283c0,31.894-25.856,57.75-57.75,57.75S181,244.177,181,212.283 c0-31.894,25.856-57.75,57.75-57.75S296.5,180.389,296.5,212.283z M281.5,212.283c0-23.572-19.178-42.75-42.75-42.75 S196,188.711,196,212.283c0,23.572,19.178,42.75,42.75,42.75S281.5,235.855,281.5,212.283z M115.5,212.283 c0,31.894-25.856,57.75-57.75,57.75S0,244.177,0,212.283c0-31.894,25.856-57.75,57.75-57.75S115.5,180.389,115.5,212.283z M100.5,212.283c0-23.572-19.178-42.75-42.75-42.75c-23.572,0-42.75,19.178-42.75,42.75c0,23.572,19.178,42.75,42.75,42.75 C81.322,255.033,100.5,235.855,100.5,212.283z M248.978,79.171c14.001-5.664,20.759-21.606,15.094-35.607 c-5.664-14.001-21.606-20.759-35.607-15.094s-20.759,21.606-15.094,35.607C219.036,78.078,234.978,84.836,248.978,79.171z"/> </g> </g>
</svg>