<!DOCTYPE svg PUBLIC "-//W3C//DTD SVG 1.1//EN" "http://www.w3.org/Graphics/SVG/1.1/DTD/svg11.dtd">
<!-- Uploaded to: SVG Repo, www.svgrepo.com, Transformed by: SVG Repo Mixer Tools -->
<svg fill="#E6E6EB" width="800px" height="800px" viewBox="0 0 32 32" enable-background="new 0 0 32 32" id="Glyph" version="1.1" xml:space="preserve" xmlns="http://www.w3.org/2000/svg" xmlns:xlink="http://www.w3.org/1999/xlink">
<g id="SVGRepo_bgCarrier" stroke-width="0"/>
<g id="SVGRepo_tracerCarrier" stroke-linecap="round" stroke-linejoin="round"/>
<g id="SVGRepo_iconCarrier">
<path d="M29.815,6.168C29.484,5.448,28.783,5,27.986,5H4.014c-0.797,0-1.498,0.448-1.83,1.168 c-0.329,0.714-0.215,1.53,0.297,2.128c0,0,0.001,0.001,0.001,0.001L12,19.371V28c0,0.369,0.203,0.708,0.528,0.882 C12.676,28.961,12.838,29,13,29c0.194,0,0.387-0.057,0.555-0.168l6-4C19.833,24.646,20,24.334,20,24v-4.629l9.519-11.074 C30.031,7.698,30.145,6.882,29.815,6.168z" id="XMLID_276_"/>
</g>
</svg>