<?xml version="1.0" encoding="UTF-8" standalone="no"?>
<!DOCTYPE svg PUBLIC "-//W3C//DTD SVG 1.1//EN" "http://www.w3.org/Graphics/SVG/1.1/DTD/svg11.dtd">
<svg width="100%" height="100%" viewBox="0 0 365 365" version="1.1" xmlns="http://www.w3.org/2000/svg" xmlns:xlink="http://www.w3.org/1999/xlink" xml:space="preserve" xmlns:serif="http://www.serif.com/" style="fill-rule:evenodd;clip-rule:evenodd;stroke-linecap:round;stroke-linejoin:round;stroke-miterlimit:1.5;">
    <g id="Artboard1" transform="matrix(0.632867,0,0,0.89604,-120.633743,-113.59205)">
        <rect x="190.615" y="126.771" width="575.747" height="406.646" style="fill:none;"/>
        <g transform="matrix(1.58011,0,0,1.116022,-426.108126,-61.02752)">
            <path d="M414.438,285.631C426.994,254.457 448.772,227.808 476.479,208.903L505.442,248.768C486.307,261.716 471.117,279.851 462.004,301.086L414.438,285.631Z" style="fill:rgb(235,235,235);"/>
        </g>
        <g transform="matrix(1.58011,0,0,1.116022,-426.108126,-61.02752)">
            <path d="M481.375,205.682C507.594,189.063 538.707,179.212 572.119,178.668L572.119,227.581C549.493,228.101 528.377,234.63 510.376,245.599L481.375,205.682Z" style="fill:rgb(235,235,235);"/>
        </g>
        <g transform="matrix(1.58011,0,0,1.116022,-426.108126,-61.02752)">
            <path d="M577.973,178.668C612.725,179.234 644.991,189.868 671.848,207.714L642.877,247.591C624.208,235.423 601.937,228.131 577.973,227.581L577.973,178.668Z" style="fill:rgb(82,66,92);stroke:rgb(56,43,63);stroke-width:2.08px;"/>
        </g>
        <g transform="matrix(1.58011,0,0,1.116022,-426.108126,-61.02752)">
            <path d="M676.67,211.037C703.505,230.206 724.478,256.763 736.447,287.637L688.921,303.079C680.388,282.139 665.985,264.098 647.706,250.904L676.67,211.037Z" style="fill:rgb(235,235,235);"/>
        </g>
        <g transform="matrix(1.58011,0,0,1.116022,-426.108126,-61.02752)">
            <path d="M738.467,293.136C744.38,310.158 747.587,328.398 747.587,347.365C747.587,365.938 744.511,383.815 738.831,400.534L691.362,385.11C695.393,373.241 697.576,360.55 697.576,347.365C697.576,333.786 695.261,320.732 690.997,308.56L738.467,293.136Z" style="fill:rgb(235,235,235);"/>
        </g>
        <g transform="matrix(1.58011,0,0,1.116022,-426.108126,-61.02752)">
            <path d="M736.848,406.045C725.115,436.933 704.39,463.562 677.791,482.885L648.821,443.011C666.871,429.672 681.034,411.563 689.34,390.609L736.848,406.045Z" style="fill:rgb(235,235,235);"/>
        </g>
        <g transform="matrix(1.58011,0,0,1.116022,-426.108126,-61.02752)">
            <path d="M672.996,486.246C646.663,504.047 615.031,514.875 580.9,515.99L580.9,467.048C604.242,465.972 625.884,458.497 644.03,446.378L672.996,486.246Z" style="fill:rgb(235,235,235);"/>
        </g>
        <g transform="matrix(1.58011,0,0,1.116022,-426.108126,-61.02752)">
            <path d="M575.046,516.086C540.451,516.086 508.219,506.108 481.201,488.937L510.2,449.024C529.012,460.53 551.241,467.182 575.046,467.182L575.046,516.086Z" style="fill:rgb(235,235,235);"/>
        </g>
        <g transform="matrix(1.58011,0,0,1.116022,-426.108126,-61.02752)">
            <path d="M476.309,485.711C448.284,466.54 426.342,439.438 413.901,407.747L461.438,392.301C470.454,414.051 485.816,432.633 505.272,445.846L476.309,485.711Z" style="fill:rgb(235,235,235);"/>
        </g>
        <g transform="matrix(1.58011,0,0,1.116022,-426.108126,-61.02752)">
            <path d="M411.857,402.256C405.796,385.045 402.505,366.578 402.505,347.365C402.505,327.642 405.973,308.705 412.345,291.106L459.826,306.534C455.096,319.279 452.516,333.03 452.516,347.365C452.516,361.19 454.915,374.471 459.329,386.831L411.857,402.256Z" style="fill:rgb(235,235,235);"/>
        </g>
        <g transform="matrix(2.079028,0,0,1.468404,-45.775688,-16.654203)">
            <g transform="matrix(153.884982,0,0,153.884982,296.251691,288.872868)">
            </g>
            <text x="207.738px" y="288.873px" style="font-family:'LeelawadeeUI-Bold', 'Leelawadee UI', sans-serif;font-weight:700;font-size:153.885px;fill:rgb(230,230,235);">1</text>
        </g>
    </g>
</svg>
