<?xml version="1.0" encoding="UTF-8" standalone="no"?><!DOCTYPE svg PUBLIC "-//W3C//DTD SVG 1.1//EN" "http://www.w3.org/Graphics/SVG/1.1/DTD/svg11.dtd"><svg width="100%" height="100%" viewBox="0 0 88 88" version="1.1" xmlns="http://www.w3.org/2000/svg" xmlns:xlink="http://www.w3.org/1999/xlink" xml:space="preserve" xmlns:serif="http://www.serif.com/" style="fill-rule:evenodd;clip-rule:evenodd;stroke-linecap:round;stroke-linejoin:round;stroke-miterlimit:1.5;"><rect id="Level2" x="-0" y="-0" width="87.449" height="87.449" style="fill:none;"/><path d="M5.792,28.165c3.013,-7.482 8.24,-13.878 14.89,-18.415l6.951,9.568c-4.592,3.107 -8.238,7.46 -10.425,12.556l-11.416,-3.709Z" style="fill:#ebebeb;"/><path d="M21.857,8.978c6.293,-3.989 13.76,-6.353 21.779,-6.484l0,11.739c-5.43,0.125 -10.498,1.692 -14.818,4.324l-6.96,-9.58Z" style="fill:#ebebeb;"/><path d="M45.041,2.494c8.34,0.136 16.084,2.688 22.53,6.971l-6.953,9.57c-4.481,-2.92 -9.826,-4.67 -15.577,-4.802l0,-11.739Z" style="fill:#52425c;stroke:#382b3f;stroke-width:0.5px;"/><path d="M68.728,10.263c6.44,4.601 11.474,10.974 14.346,18.384l-11.406,3.706c-2.048,-5.026 -5.505,-9.355 -9.892,-12.522l6.952,-9.568Z" style="fill:#ebebeb;"/><path d="M83.559,29.967c1.419,4.085 2.189,8.463 2.189,13.015c0,4.458 -0.738,8.748 -2.101,12.761l-11.392,-3.702c0.967,-2.849 1.491,-5.894 1.491,-9.059c0,-3.259 -0.556,-6.392 -1.579,-9.313l11.393,-3.702Z" style="fill:#ebebeb;"/><path d="M83.171,57.065c-2.816,7.413 -7.79,13.804 -14.174,18.442l-6.953,-9.57c4.332,-3.201 7.731,-7.548 9.725,-12.577l11.402,3.705Z" style="fill:#ebebeb;"/><path d="M67.846,76.313c-6.32,4.272 -13.912,6.871 -22.103,7.139l-0,-11.746c5.602,-0.258 10.796,-2.052 15.151,-4.961l6.952,9.568Z" style="fill:#ebebeb;"/><path d="M44.338,83.475c-8.303,0 -16.038,-2.395 -22.523,-6.516l6.96,-9.579c4.515,2.761 9.85,4.358 15.563,4.358l0,11.737Z" style="fill:#ebebeb;"/><path d="M20.641,76.185c-6.726,-4.601 -11.992,-11.105 -14.978,-18.711l11.409,-3.707c2.164,5.22 5.851,9.68 10.52,12.851l-6.951,9.567Z" style="fill:#ebebeb;"/><path d="M5.173,56.155c-1.455,-4.131 -2.244,-8.563 -2.244,-13.174c0,-4.733 0.832,-9.278 2.362,-13.502l11.395,3.703c-1.135,3.059 -1.754,6.359 -1.754,9.799c0,3.318 0.576,6.505 1.635,9.472l-11.393,3.702Z" style="fill:#ebebeb;"/><g transform="matrix(48.593733,0,0,48.593733,57.645349,60.376578)"></g><text x="29.694px" y="60.377px" style="font-family:'LeelawadeeUI-Bold', 'Leelawadee UI', sans-serif;font-weight:700;font-size:48.594px;fill:#e6e6eb;">2</text><path d="M5.792,28.165c3.013,-7.482 8.24,-13.878 14.89,-18.415l6.951,9.568c-4.592,3.107 -8.238,7.46 -10.425,12.556l-11.416,-3.709Z" style="fill:#ebebeb;"/><path d="M21.857,8.978c6.293,-3.989 13.76,-6.353 21.779,-6.484l0,11.739c-5.43,0.125 -10.498,1.692 -14.818,4.324l-6.96,-9.58Z" style="fill:#ebebeb;"/><path d="M45.041,2.494c8.34,0.136 16.084,2.688 22.53,6.971l-6.953,9.57c-4.481,-2.92 -9.826,-4.67 -15.577,-4.802l0,-11.739Z" style="fill:#52425c;stroke:#382b3f;stroke-width:0.5px;"/><path d="M68.728,10.263c6.44,4.601 11.474,10.974 14.346,18.384l-11.406,3.706c-2.048,-5.026 -5.505,-9.355 -9.892,-12.522l6.952,-9.568Z" style="fill:#52425c;stroke:#382b3f;stroke-width:0.49px;"/><path d="M83.559,29.967c1.419,4.085 2.189,8.463 2.189,13.015c0,4.458 -0.738,8.748 -2.101,12.761l-11.392,-3.702c0.967,-2.849 1.491,-5.894 1.491,-9.059c0,-3.259 -0.556,-6.392 -1.579,-9.313l11.393,-3.702Z" style="fill:#ebebeb;"/><path d="M83.171,57.065c-2.816,7.413 -7.79,13.804 -14.174,18.442l-6.953,-9.57c4.332,-3.201 7.731,-7.548 9.725,-12.577l11.402,3.705Z" style="fill:#ebebeb;"/><path d="M67.846,76.313c-6.32,4.272 -13.912,6.871 -22.103,7.139l-0,-11.746c5.602,-0.258 10.796,-2.052 15.151,-4.961l6.952,9.568Z" style="fill:#ebebeb;"/><path d="M44.338,83.475c-8.303,0 -16.038,-2.395 -22.523,-6.516l6.96,-9.579c4.515,2.761 9.85,4.358 15.563,4.358l0,11.737Z" style="fill:#ebebeb;"/><path d="M20.641,76.185c-6.726,-4.601 -11.992,-11.105 -14.978,-18.711l11.409,-3.707c2.164,5.22 5.851,9.68 10.52,12.851l-6.951,9.567Z" style="fill:#ebebeb;"/><path d="M5.173,56.155c-1.455,-4.131 -2.244,-8.563 -2.244,-13.174c0,-4.733 0.832,-9.278 2.362,-13.502l11.395,3.703c-1.135,3.059 -1.754,6.359 -1.754,9.799c0,3.318 0.576,6.505 1.635,9.472l-11.393,3.702Z" style="fill:#ebebeb;"/></svg>