<svg xmlns="http://www.w3.org/2000/svg" width="512" height="512" viewBox="0 0 24 24"><path fill="#000000" d="M12 2a10 10 0 1 0 10 10A10.01 10.01 0 0 0 12 2m5.939 7.713v.646a.37.37 0 0 1-.38.37a5.364 5.364 0 0 1-2.903-1.108v4.728a3.938 3.938 0 0 1-1.18 2.81a4.011 4.011 0 0 1-2.87 1.17a4.103 4.103 0 0 1-2.862-1.17a3.98 3.98 0 0 1-1.026-3.805c.159-.642.48-1.232.933-1.713a3.58 3.58 0 0 1 2.79-1.313h.82v1.703a.348.348 0 0 1-.39.348a1.918 1.918 0 0 0-1.23 3.631c.27.155.572.246.882.267c.24.01.48-.02.708-.092a1.928 1.928 0 0 0 1.313-1.816V5.754a.359.359 0 0 1 .359-.36h1.415a.359.359 0 0 1 .359.34a3.303 3.303 0 0 0 1.282 2.245a3.25 3.25 0 0 0 1.641.636a.37.37 0 0 1 .338.35z"/></svg>