<svg viewBox="160 432 1278 334" version="1.1" xmlns="http://www.w3.org/2000/svg" style="fill-rule:evenodd;clip-rule:evenodd;stroke-linejoin:round;stroke-miterlimit:2;">
    <g transform="matrix(4.166667,0,0,4.166667,128.037835,379.166667)">
        <path d="M10,15L50,91L50,59L33,15L10,15Z" style="fill:rgb(111,77,179);fill-rule:nonzero;"/>
    </g>
    <g transform="matrix(4.166667,0,0,4.166667,128.037835,379.166667)">
        <path d="M90,15L50,91L50,59L67,15L90,15Z" style="fill:rgb(155,120,212);fill-rule:nonzero;"/>
    </g>
    <g transform="matrix(2.886586,0,0,3.042084,305.970779,449.023993)">
        <path d="M89.152,15.624C81.196,30.643 51.356,86.956 51.246,86.956L35.165,86.956L75.04,11.98L87.219,11.98C87.863,13.194 88.508,14.41 89.152,15.624Z" style="fill:rgb(111,77,179);"/>
    </g>
    <g transform="matrix(-2.886586,0,0,3.04221,774.324831,449.007178)">
        <path d="M87.13,11.98L75.04,11.98L51.297,56.624L51.297,86.874C52.665,84.486 81.364,30.326 89.149,15.63L87.13,11.98Z" style="fill:rgb(111,77,179);"/>
    </g>
    <g transform="matrix(-2.886586,0,0,3.045396,1327.325,448.980493)">
        <path d="M51.297,86.874C52.88,84.11 91.082,11.98 91.082,11.98L75.04,11.98L51.297,56.624L51.297,86.874Z" style="fill:rgb(111,77,179);"/>
    </g>
    <g transform="matrix(0.431683,-0.011232,0.03742,1.43815,666.955451,-259.287439)">
        <rect x="1126.977" y="621.243" width="8.406" height="63.749" style="fill:rgb(111,77,179);"/>
    </g>
    <g transform="matrix(0.891611,-0.452802,0.549088,1.081207,-220.498093,453.489061)">
        <rect x="1130.284" y="713.564" width="0.919" height="0.331" style="fill:rgb(111,77,179);"/>
    </g>
    <g transform="matrix(1.007229,0,0,0.93636,-262.890152,121.352661)">
        <rect x="725.252" y="523.875" width="135.023" height="44.836" style="fill:rgb(111,77,179);"/>
    </g>
    <g transform="matrix(0.909648,0,0,1.033704,38.937229,125.675768)">
        <rect x="725.252" y="523.875" width="135.023" height="44.836" style="fill:rgb(111,77,179);"/>
    </g>
    <g transform="matrix(0.940228,0,0,1.033704,215.817475,-56.066617)">
        <rect x="725.252" y="523.875" width="135.023" height="44.836" style="fill:rgb(111,77,179);"/>
    </g>
    <g transform="matrix(0.954328,0,0,1.033704,609.352904,-56.066617)">
        <rect x="725.252" y="523.875" width="135.023" height="44.836" style="fill:rgb(111,77,179);"/>
    </g>
    <g transform="matrix(0.954328,0,0,1.033704,609.352904,34.8084)">
        <rect x="725.252" y="523.875" width="135.023" height="44.836" style="fill:rgb(111,77,179);"/>
    </g>
    <g transform="matrix(0.924642,0,0,1.033704,595.415298,126.667088)">
        <rect x="725.252" y="523.875" width="135.023" height="44.836" style="fill:rgb(111,77,179);"/>
    </g>
    <g transform="matrix(0.940228,0,0,1.033704,215.817475,125.683418)">
        <rect x="725.252" y="523.875" width="135.023" height="44.836" style="fill:rgb(111,77,179);"/>
    </g>
    <g transform="matrix(0.940228,0,0,1.033704,215.817475,34.8084)">
        <rect x="725.252" y="523.875" width="135.023" height="44.836" style="fill:rgb(111,77,179);"/>
    </g>
    <g transform="matrix(0.754841,0,0,0.692781,-56.938523,225.549641)">
        <rect x="950.717" y="375.166" width="61.4" height="329.249" style="fill:rgb(111,77,179);"/>
    </g>
    <g transform="matrix(0.754841,0,0,0.692781,138.349409,225.557292)">
        <rect x="950.717" y="375.166" width="61.4" height="329.249" style="fill:rgb(111,77,179);"/>
    </g>
    <g transform="matrix(0.754841,0,0,0.416773,548.373196,329.105977)">
        <rect x="950.717" y="375.166" width="61.4" height="329.249" style="fill:rgb(111,77,179);"/>
    </g>
    <g transform="matrix(0.754841,0,0,0.296386,666.349828,505.767051)">
        <rect x="950.717" y="375.166" width="61.4" height="329.249" style="fill:rgb(111,77,179);"/>
    </g>
    <g transform="matrix(0.754841,0,0,0.692781,346.767651,225.557292)">
        <rect x="950.717" y="375.166" width="61.4" height="329.249" style="fill:rgb(111,77,179);"/>
    </g>
    <g transform="matrix(0.754841,0,0,0.692781,461.612422,225.557292)">
        <rect x="950.717" y="375.166" width="61.4" height="329.249" style="fill:rgb(111,77,179);"/>
    </g>
</svg>
